<svg width="47" height="47" viewBox="0 0 47 47" fill="none" xmlns="http://www.w3.org/2000/svg">
<path fill-rule="evenodd" clip-rule="evenodd" d="M47 17.1257C47 11.1175 42.0817 6.22948 36.0363 6.22948C35.7737 6.22948 35.5084 6.23929 35.242 6.25907C32.6405 2.37326 28.2332 0 23.5 0C18.767 0 14.3597 2.37374 11.7582 6.25907C11.4917 6.23929 11.2265 6.22948 10.9638 6.22948C4.91829 6.22948 0 11.1175 0 17.1257C0 22.607 4.0943 27.1537 9.40283 27.9091V42.9677C9.40283 45.1912 11.2235 47 13.4615 47H33.5385C35.7767 47 37.5972 45.1911 37.5972 42.9677V27.9091C42.9059 27.1537 47 22.6068 47 17.1257ZM33.5385 43.8982H13.4616C12.9541 43.8982 12.525 43.472 12.525 42.9675V27.9106C14.0545 27.6953 15.5065 27.1633 16.8163 26.336C18.8254 27.4156 21.1104 28.0215 23.5 28.0215C25.8896 28.0215 28.1744 27.4156 30.1835 26.3361C31.4936 27.1633 32.9458 27.6953 34.4752 27.9106V42.9675C34.4752 43.472 34.0462 43.8982 33.5385 43.8982ZM33.0258 24.3237C33.9697 24.7157 34.9855 24.9197 36.0363 24.9197C40.3601 24.9197 43.878 21.4233 43.8775 17.1257C43.8775 12.828 40.3598 9.33132 36.036 9.33132C35.5991 9.33132 35.1491 9.37025 34.6986 9.44684C34.0479 9.55714 33.3971 9.24966 33.0739 8.67775C31.1295 5.23852 27.461 3.10184 23.4998 3.10184C19.5387 3.10184 15.8702 5.23836 13.9261 8.67759C13.6027 9.24951 12.9516 9.55698 12.3014 9.44684C11.8509 9.37025 11.4009 9.33132 10.9638 9.33132C6.64001 9.33132 3.12217 12.828 3.12217 17.1257C3.12217 21.4233 6.63985 24.9197 10.9638 24.9197C12.0145 24.9197 13.0303 24.7157 13.9742 24.3237C12.0744 22.5935 10.6381 20.3444 9.91717 17.7597C9.687 16.9342 10.1738 16.0794 11.0046 15.8507C11.8361 15.622 12.6959 16.1056 12.9261 16.9311C14.2381 21.6347 18.5862 24.9197 23.5 24.9197C28.4138 24.9197 32.762 21.6347 34.0739 16.9311C34.3044 16.1058 35.1644 15.622 35.9954 15.8507C36.8262 16.0795 37.313 16.9342 37.0828 17.7597C36.3617 20.3444 34.9256 22.5934 33.0258 24.3237Z" fill="white"/>
</svg>
