<svg width="112" height="112" viewBox="0 0 112 112" fill="none" xmlns="http://www.w3.org/2000/svg">
<path fill-rule="evenodd" clip-rule="evenodd" d="M71.3739 32C68.2568 32 63.6502 46.008 62.0447 60H66.9835V77C66.9835 78.862 68.5551 80 69.9865 80H69.9885C71.6462 80 72.9915 78.656 72.9915 77C72.9955 66.926 73.0095 36.492 72.9895 33.702C72.9835 32.714 72.2688 32 71.3739 32ZM70.9915 34.666L70.9895 77C70.9895 77.552 70.5391 78 69.9865 78C69.6722 78 68.9855 77.748 68.9855 77V58.004H64.3129C65.9145 46.226 69.1117 37.308 70.9915 34.666ZM54.0888 32H52.313L53.6644 44.004L50.9797 44L50.9737 32H48.9717L48.9737 44H46.9657L46.9697 32H44.9677L44.9577 44H42.3732L43.5684 32.004L41.7486 32C41.7486 32 40.5253 42.076 40.0208 47.15C39.8447 48.928 40.8036 50.674 42.203 51.794C44.0909 53.306 44.9717 53.758 44.9717 55.14V77C44.9717 78.656 46.3051 80 47.9687 80C49.6344 80 50.9797 78.656 50.9797 77V55.15C50.9797 53.746 51.8466 53.314 53.7464 51.812C55.1739 50.684 56.1889 48.904 55.9907 47.1C55.4401 42.01 54.0888 32 54.0888 32ZM53.8545 46C54.0067 47.316 54.3951 48.75 52.5052 50.244C50.6033 51.75 48.9777 52.676 48.9777 55.15V77C48.9777 77.552 48.5253 78 47.9687 78C47.4102 78 46.9737 77.552 46.9737 77V55.14C46.9737 52.696 45.3341 51.742 43.4562 50.234C41.6324 48.774 42.0168 47.284 42.151 46H53.8545Z" fill="white"/>
</svg>
